<?xml version="1.0" encoding="UTF-8"?>
<svg xmlns="http://www.w3.org/2000/svg" xmlns:xlink="http://www.w3.org/1999/xlink" width="40px" height="40px" viewBox="0 0 40 40" version="1.1">
<g id="surface1">
<path style=" stroke:none;fill-rule:nonzero;fill:rgb(0%,0%,0%);fill-opacity:1;" d="M 0 20 L 0 40 L 40 40 L 40 0 L 0 0 Z M 20.03125 4.8125 C 20.304688 4.898438 21.230469 5.207031 22.089844 5.496094 C 24.644531 6.351562 25.207031 6.53125 25.3125 6.511719 C 25.367188 6.5 25.535156 6.445312 25.683594 6.386719 C 26.207031 6.179688 26.859375 6.257812 27.359375 6.578125 C 27.609375 6.742188 27.875 7.007812 27.972656 7.191406 L 28.042969 7.335938 L 27.957031 7.355469 C 27.910156 7.367188 27.789062 7.390625 27.683594 7.402344 C 27.503906 7.429688 27.492188 7.425781 27.300781 7.246094 C 26.75 6.730469 25.992188 6.699219 25.417969 7.164062 C 25.269531 7.28125 25.171875 7.410156 25.0625 7.625 C 24.929688 7.886719 24.910156 7.957031 24.894531 8.265625 C 24.875 8.636719 24.878906 8.648438 25.132812 9.46875 C 25.210938 9.726562 25.269531 9.949219 25.261719 9.972656 C 25.257812 9.992188 25.089844 9.875 24.886719 9.714844 C 24.6875 9.550781 24.476562 9.410156 24.421875 9.398438 C 24.363281 9.386719 23.984375 9.332031 23.574219 9.28125 C 23.167969 9.226562 22.367188 9.121094 21.796875 9.042969 C 21.226562 8.964844 20.621094 8.890625 20.445312 8.878906 L 20.132812 8.855469 L 19.550781 9.789062 C 19.035156 10.613281 18.570312 11.371094 18.242188 11.914062 C 17.867188 12.53125 17.453125 13.203125 17.214844 13.570312 L 16.941406 13.996094 L 17.078125 14.117188 C 17.15625 14.183594 17.289062 14.296875 17.378906 14.367188 C 17.671875 14.605469 17.660156 14.488281 17.648438 16.75 C 17.636719 19.035156 17.65625 18.878906 17.316406 19.113281 C 17.214844 19.183594 17.09375 19.273438 17.042969 19.316406 L 16.953125 19.394531 L 17.257812 19.882812 C 17.425781 20.152344 17.6875 20.574219 17.839844 20.820312 C 18.351562 21.65625 19.421875 23.375 19.6875 23.789062 C 19.832031 24.015625 19.976562 24.257812 20.015625 24.324219 C 20.074219 24.441406 20.097656 24.453125 20.253906 24.453125 C 20.351562 24.453125 20.679688 24.417969 20.988281 24.375 C 21.292969 24.332031 21.914062 24.253906 22.363281 24.199219 C 22.816406 24.144531 23.507812 24.058594 23.902344 24.007812 L 24.621094 23.914062 L 25.207031 23.507812 L 25.183594 23.664062 C 25.167969 23.75 25.09375 23.976562 25.019531 24.171875 C 24.761719 24.839844 24.75 25.328125 24.984375 25.789062 C 25.367188 26.546875 26.453125 26.796875 27.121094 26.285156 C 27.273438 26.167969 27.539062 25.867188 27.539062 25.808594 C 27.539062 25.796875 27.46875 25.765625 27.378906 25.742188 C 27.226562 25.699219 27.222656 25.695312 27.25 25.574219 C 27.261719 25.507812 27.296875 25.390625 27.324219 25.3125 C 27.367188 25.1875 27.386719 25.175781 27.5 25.1875 C 27.570312 25.195312 27.675781 25.179688 27.738281 25.15625 C 27.859375 25.105469 27.890625 25.03125 28.070312 24.433594 C 28.125 24.238281 28.203125 24.019531 28.246094 23.941406 C 28.324219 23.785156 28.515625 23.605469 28.664062 23.550781 C 28.757812 23.515625 28.757812 23.511719 28.691406 23.4375 C 28.601562 23.339844 28.519531 23.097656 28.515625 22.925781 C 28.515625 22.847656 28.578125 22.578125 28.652344 22.320312 C 28.820312 21.753906 28.824219 21.636719 28.6875 21.527344 C 28.632812 21.484375 28.554688 21.4375 28.511719 21.425781 C 28.421875 21.394531 28.417969 21.34375 28.5 21.066406 C 28.5625 20.859375 28.5625 20.855469 28.683594 20.878906 C 28.753906 20.894531 28.894531 20.953125 29 21.007812 C 29.449219 21.25 29.507812 21.542969 29.277344 22.402344 C 29.113281 23.027344 29.117188 23.140625 29.3125 23.3125 C 29.386719 23.375 29.464844 23.433594 29.488281 23.441406 C 29.515625 23.453125 29.507812 23.539062 29.460938 23.710938 L 29.394531 23.964844 L 29.199219 23.984375 C 28.851562 24.023438 28.816406 24.074219 28.617188 24.765625 C 28.390625 25.5625 28.019531 26.257812 27.640625 26.589844 C 27 27.152344 26.105469 27.265625 25.34375 26.878906 L 25.121094 26.765625 L 23.820312 27.195312 C 23.105469 27.429688 21.832031 27.851562 20.996094 28.128906 C 20.15625 28.40625 19.417969 28.632812 19.355469 28.632812 C 19.234375 28.632812 19.28125 28.675781 17.96875 27.324219 C 16.214844 25.519531 15.792969 25.085938 14.339844 23.601562 C 13.292969 22.53125 12.78125 22.035156 12.738281 22.046875 C 12.703125 22.054688 12.554688 22.074219 12.40625 22.089844 C 12.1875 22.113281 12.144531 22.105469 12.171875 22.0625 C 12.1875 22.035156 12.164062 22.046875 12.117188 22.085938 C 12.039062 22.152344 12.015625 22.15625 11.875 22.109375 C 11.769531 22.074219 11.71875 22.035156 11.71875 21.984375 C 11.71875 21.933594 11.6875 21.914062 11.613281 21.910156 C 11.550781 21.90625 11.488281 21.902344 11.464844 21.894531 C 11.445312 21.890625 11.410156 21.882812 11.386719 21.878906 C 11.367188 21.875 11.375 21.855469 11.40625 21.835938 C 11.453125 21.808594 11.445312 21.792969 11.367188 21.765625 C 11.296875 21.738281 11.382812 21.71875 11.761719 21.667969 C 12.027344 21.628906 12.257812 21.601562 12.277344 21.601562 C 12.292969 21.601562 12.304688 21.574219 12.304688 21.542969 C 12.304688 21.511719 12.289062 21.484375 12.269531 21.484375 C 12.25 21.484375 11.96875 21.289062 11.640625 21.054688 L 11.046875 20.625 L 10.925781 20.710938 C 10.824219 20.78125 10.753906 20.800781 10.566406 20.796875 C 10.222656 20.789062 10.042969 20.765625 10.066406 20.730469 C 10.074219 20.714844 10.0625 20.703125 10.042969 20.703125 C 10.019531 20.703125 10 20.675781 10 20.640625 C 10 20.589844 10.011719 20.585938 10.058594 20.625 C 10.089844 20.652344 10.195312 20.675781 10.289062 20.675781 C 10.425781 20.679688 10.453125 20.691406 10.421875 20.730469 C 10.390625 20.769531 10.398438 20.78125 10.441406 20.78125 C 10.476562 20.78125 10.515625 20.746094 10.527344 20.699219 C 10.542969 20.65625 10.574219 20.628906 10.597656 20.636719 C 10.625 20.644531 10.675781 20.628906 10.714844 20.59375 C 10.773438 20.542969 10.78125 20.542969 10.78125 20.59375 C 10.78125 20.628906 10.816406 20.648438 10.871094 20.648438 C 10.960938 20.644531 11.042969 20.558594 10.996094 20.515625 C 10.984375 20.5 10.957031 20.515625 10.941406 20.542969 C 10.921875 20.570312 10.886719 20.582031 10.863281 20.570312 C 10.792969 20.527344 10.8125 20.4375 10.902344 20.410156 C 10.964844 20.390625 10.972656 20.371094 10.933594 20.328125 C 10.910156 20.296875 10.902344 20.273438 10.921875 20.273438 C 10.9375 20.273438 10.933594 20.253906 10.90625 20.226562 C 10.84375 20.164062 10.847656 20.117188 10.914062 20.117188 C 10.992188 20.117188 11.019531 20.066406 10.96875 20 C 10.9375 19.949219 10.933594 19.953125 10.949219 20.003906 C 10.96875 20.058594 10.957031 20.0625 10.878906 20.023438 C 10.816406 19.996094 10.800781 19.972656 10.832031 19.949219 C 10.867188 19.929688 10.859375 19.90625 10.808594 19.867188 C 10.738281 19.8125 10.738281 19.808594 10.820312 19.765625 C 10.867188 19.738281 10.898438 19.734375 10.882812 19.757812 C 10.871094 19.777344 10.90625 19.804688 10.957031 19.816406 C 11.011719 19.824219 11.066406 19.816406 11.082031 19.792969 C 11.09375 19.773438 11.089844 19.765625 11.070312 19.777344 C 11.046875 19.789062 11.007812 19.785156 10.976562 19.761719 C 10.929688 19.734375 10.933594 19.726562 10.996094 19.726562 C 11.058594 19.726562 11.851562 19.257812 12.726562 18.707031 C 12.800781 18.660156 12.8125 18.617188 12.8125 18.429688 L 12.8125 18.207031 L 12.414062 18.003906 C 12.191406 17.890625 11.738281 17.664062 11.40625 17.496094 C 11.074219 17.328125 10.824219 17.191406 10.851562 17.191406 C 10.878906 17.1875 10.890625 17.167969 10.875 17.140625 C 10.859375 17.113281 10.863281 17.109375 10.894531 17.125 C 10.917969 17.140625 10.964844 17.136719 10.992188 17.113281 C 11.035156 17.078125 11.082031 17.085938 11.1875 17.132812 C 11.261719 17.171875 11.316406 17.214844 11.308594 17.230469 C 11.296875 17.242188 11.3125 17.253906 11.339844 17.253906 C 11.414062 17.246094 11.683594 17.371094 12.324219 17.699219 L 12.914062 18 L 13.066406 17.886719 C 13.148438 17.824219 13.242188 17.773438 13.269531 17.773438 C 13.304688 17.773438 13.320312 17.707031 13.320312 17.546875 C 13.320312 17.425781 13.332031 17.09375 13.347656 16.816406 C 13.378906 16.164062 13.34375 15.871094 13.238281 15.839844 C 13.195312 15.824219 13.101562 15.761719 13.03125 15.699219 L 12.902344 15.585938 L 12.417969 15.816406 C 11.160156 16.410156 11.144531 16.417969 11.121094 16.355469 C 11.109375 16.332031 11.097656 16.34375 11.097656 16.386719 C 11.09375 16.453125 11.085938 16.453125 11.054688 16.40625 C 11.035156 16.375 11.015625 16.363281 11.015625 16.386719 C 11.015625 16.40625 10.996094 16.398438 10.976562 16.367188 C 10.945312 16.316406 10.933594 16.320312 10.878906 16.386719 C 10.84375 16.429688 10.824219 16.445312 10.835938 16.417969 C 10.851562 16.394531 10.832031 16.367188 10.792969 16.359375 C 10.738281 16.347656 11.484375 15.984375 12.492188 15.527344 L 12.8125 15.378906 L 12.8125 14.964844 L 12.433594 14.75 C 12.222656 14.632812 11.945312 14.476562 11.816406 14.40625 C 11.113281 14.019531 10.828125 13.847656 10.84375 13.820312 C 10.855469 13.804688 10.835938 13.800781 10.804688 13.8125 C 10.769531 13.824219 10.742188 13.820312 10.742188 13.796875 C 10.742188 13.773438 10.765625 13.746094 10.792969 13.738281 C 10.820312 13.726562 10.8125 13.714844 10.773438 13.714844 C 10.695312 13.710938 10.679688 13.570312 10.746094 13.476562 C 10.777344 13.429688 10.78125 13.433594 10.765625 13.496094 C 10.738281 13.601562 10.796875 13.6875 10.878906 13.660156 C 10.964844 13.625 11.15625 13.75 11.085938 13.792969 C 11.03125 13.828125 11.070312 13.839844 11.230469 13.832031 C 11.273438 13.832031 11.285156 13.839844 11.261719 13.851562 C 11.191406 13.882812 11.199219 13.933594 11.269531 13.933594 C 11.300781 13.933594 11.328125 13.917969 11.328125 13.902344 C 11.328125 13.871094 11.761719 14.089844 12.1875 14.335938 C 12.328125 14.417969 12.546875 14.542969 12.679688 14.617188 L 12.914062 14.753906 L 13.058594 14.652344 C 13.148438 14.585938 13.203125 14.519531 13.203125 14.460938 C 13.203125 14.414062 13.148438 14.113281 13.085938 13.796875 C 13.019531 13.480469 12.914062 12.933594 12.847656 12.582031 C 12.785156 12.230469 12.71875 11.917969 12.703125 11.886719 C 12.679688 11.847656 12.574219 11.902344 12.265625 12.125 C 12.042969 12.289062 11.851562 12.410156 11.839844 12.398438 C 11.828125 12.386719 11.84375 12.363281 11.875 12.34375 C 11.90625 12.324219 11.921875 12.300781 11.910156 12.285156 C 11.886719 12.261719 11.71875 12.394531 11.71875 12.4375 C 11.71875 12.453125 11.734375 12.453125 11.757812 12.441406 C 11.777344 12.429688 11.785156 12.441406 11.773438 12.46875 C 11.75 12.523438 11.421875 12.773438 11.351562 12.789062 C 11.328125 12.796875 11.320312 12.792969 11.339844 12.785156 C 11.394531 12.75 11.363281 12.699219 11.265625 12.667969 C 11.164062 12.632812 11.164062 12.632812 11.390625 12.460938 C 11.515625 12.367188 11.648438 12.292969 11.6875 12.292969 C 11.726562 12.296875 11.75 12.28125 11.734375 12.261719 C 11.722656 12.242188 11.726562 12.226562 11.746094 12.230469 C 11.761719 12.234375 11.804688 12.234375 11.835938 12.230469 C 11.886719 12.226562 11.886719 12.222656 11.835938 12.1875 C 11.785156 12.152344 11.785156 12.148438 11.835938 12.144531 C 11.867188 12.140625 11.917969 12.140625 11.945312 12.144531 C 12.007812 12.15625 12.109375 12.078125 12.109375 12.023438 C 12.109375 12.003906 12.085938 12 12.0625 12.015625 C 12.035156 12.03125 12.054688 11.996094 12.105469 11.941406 C 12.160156 11.882812 12.226562 11.835938 12.257812 11.835938 C 12.285156 11.835938 12.304688 11.816406 12.296875 11.789062 C 12.285156 11.761719 12.097656 11.714844 11.867188 11.675781 C 11.460938 11.609375 11.222656 11.550781 11.476562 11.574219 C 11.554688 11.582031 11.597656 11.574219 11.589844 11.546875 C 11.582031 11.523438 11.527344 11.507812 11.472656 11.515625 C 11.359375 11.53125 11.332031 11.457031 11.414062 11.375 C 11.480469 11.308594 11.585938 11.316406 11.703125 11.390625 C 11.769531 11.4375 11.8125 11.445312 11.839844 11.417969 C 11.871094 11.386719 11.867188 11.367188 11.832031 11.347656 C 11.800781 11.328125 11.792969 11.332031 11.8125 11.359375 C 11.84375 11.414062 11.828125 11.417969 11.742188 11.382812 C 11.691406 11.363281 11.6875 11.34375 11.71875 11.304688 C 11.753906 11.265625 11.707031 11.253906 11.457031 11.261719 C 11.234375 11.261719 11.140625 11.28125 11.101562 11.324219 C 11.058594 11.378906 11.058594 11.378906 11.078125 11.316406 C 11.097656 11.265625 11.085938 11.253906 11.039062 11.273438 C 11.003906 11.285156 10.976562 11.277344 10.976562 11.253906 C 10.976562 11.230469 10.941406 11.210938 10.902344 11.210938 C 10.859375 11.210938 10.816406 11.195312 10.804688 11.175781 C 10.789062 11.15625 10.921875 11.144531 11.113281 11.152344 C 11.300781 11.15625 11.433594 11.148438 11.421875 11.128906 C 11.410156 11.109375 11.429688 11.09375 11.464844 11.09375 C 11.5 11.09375 11.519531 11.109375 11.507812 11.125 C 11.496094 11.144531 11.554688 11.15625 11.632812 11.152344 C 11.710938 11.148438 11.945312 11.167969 12.148438 11.195312 C 12.351562 11.222656 12.59375 11.246094 12.683594 11.246094 C 12.875 11.25 12.488281 11.636719 17.078125 6.914062 C 19.390625 4.535156 19.273438 4.648438 19.410156 4.648438 C 19.480469 4.648438 19.757812 4.722656 20.03125 4.8125 Z M 28.265625 7.886719 C 28.535156 8.007812 28.609375 8.152344 28.789062 8.867188 C 28.972656 9.609375 29.019531 9.691406 29.324219 9.726562 C 29.496094 9.746094 29.515625 9.757812 29.554688 9.882812 C 29.664062 10.222656 29.65625 10.257812 29.492188 10.367188 C 29.238281 10.535156 29.222656 10.660156 29.375 11.347656 C 29.527344 12.046875 29.527344 12.300781 29.359375 12.519531 C 29.246094 12.664062 28.96875 12.820312 28.726562 12.871094 C 28.605469 12.894531 28.605469 12.890625 28.539062 12.664062 C 28.453125 12.359375 28.457031 12.355469 28.617188 12.285156 C 28.890625 12.171875 28.914062 12.066406 28.785156 11.503906 C 28.644531 10.886719 28.628906 10.804688 28.65625 10.65625 C 28.667969 10.574219 28.730469 10.433594 28.789062 10.34375 L 28.902344 10.175781 L 28.773438 10.109375 C 28.699219 10.070312 28.578125 9.96875 28.503906 9.878906 C 28.382812 9.742188 28.347656 9.648438 28.261719 9.261719 C 28.097656 8.550781 28.089844 8.523438 27.996094 8.457031 C 27.9375 8.414062 27.863281 8.40625 27.734375 8.421875 L 27.554688 8.445312 L 27.507812 8.207031 C 27.480469 8.078125 27.457031 7.957031 27.457031 7.941406 C 27.457031 7.90625 27.820312 7.820312 27.988281 7.816406 C 28.054688 7.816406 28.179688 7.847656 28.265625 7.886719 Z M 26.746094 8.339844 C 26.816406 8.648438 26.8125 8.65625 26.621094 8.726562 C 26.355469 8.828125 26.347656 8.890625 26.507812 9.570312 C 26.632812 10.097656 26.636719 10.375 26.519531 10.585938 C 26.472656 10.671875 26.417969 10.742188 26.398438 10.742188 C 26.382812 10.742188 26.367188 10.757812 26.367188 10.78125 C 26.367188 10.800781 26.390625 10.820312 26.417969 10.820312 C 26.449219 10.820312 26.542969 10.871094 26.628906 10.933594 C 26.820312 11.070312 26.886719 11.226562 27.03125 11.863281 C 27.148438 12.382812 27.21875 12.535156 27.355469 12.542969 C 27.402344 12.546875 27.5 12.550781 27.574219 12.554688 C 27.703125 12.558594 27.710938 12.566406 27.757812 12.773438 C 27.785156 12.890625 27.808594 13.007812 27.8125 13.035156 C 27.816406 13.160156 27.234375 13.210938 27.019531 13.101562 C 26.722656 12.949219 26.652344 12.816406 26.472656 12.078125 C 26.402344 11.777344 26.3125 11.484375 26.273438 11.425781 C 26.199219 11.3125 26.066406 11.25 25.898438 11.25 C 25.769531 11.25 25.738281 11.203125 25.667969 10.917969 C 25.628906 10.761719 25.628906 10.722656 25.671875 10.707031 C 25.699219 10.699219 25.789062 10.625 25.871094 10.546875 C 26.054688 10.363281 26.054688 10.277344 25.898438 9.59375 C 25.769531 9.042969 25.761719 8.921875 25.824219 8.699219 C 25.882812 8.488281 26.039062 8.332031 26.308594 8.222656 C 26.636719 8.085938 26.6875 8.101562 26.746094 8.339844 Z M 10.226562 10.214844 C 10.214844 10.226562 10.191406 10.207031 10.179688 10.167969 C 10.15625 10.113281 10.160156 10.109375 10.199219 10.144531 C 10.226562 10.171875 10.238281 10.203125 10.226562 10.214844 Z M 9.914062 10.527344 C 9.902344 10.539062 9.878906 10.519531 9.867188 10.480469 C 9.84375 10.425781 9.847656 10.421875 9.886719 10.457031 C 9.914062 10.484375 9.925781 10.515625 9.914062 10.527344 Z M 9.992188 10.683594 C 9.980469 10.695312 9.957031 10.675781 9.945312 10.636719 C 9.921875 10.582031 9.925781 10.578125 9.964844 10.613281 C 9.992188 10.640625 10.003906 10.671875 9.992188 10.683594 Z M 10.84375 11.046875 C 10.804688 11.054688 10.757812 11.046875 10.734375 11.023438 C 10.710938 11 10.734375 10.996094 10.808594 11.007812 C 10.890625 11.027344 10.898438 11.035156 10.84375 11.046875 Z M 11.164062 11.082031 C 11.125 11.089844 11.054688 11.089844 11.007812 11.082031 C 10.957031 11.074219 10.988281 11.066406 11.074219 11.066406 C 11.160156 11.0625 11.199219 11.070312 11.164062 11.082031 Z M 10.726562 11.160156 C 10.714844 11.175781 10.742188 11.207031 10.789062 11.234375 C 10.875 11.28125 10.875 11.28125 10.769531 11.277344 C 10.710938 11.273438 10.664062 11.25 10.664062 11.230469 C 10.664062 11.207031 10.648438 11.21875 10.625 11.25 C 10.605469 11.285156 10.605469 11.324219 10.632812 11.355469 C 10.675781 11.410156 10.644531 11.417969 10.53125 11.371094 C 10.460938 11.34375 10.464844 11.335938 10.5625 11.238281 C 10.621094 11.179688 10.6875 11.132812 10.710938 11.132812 C 10.734375 11.132812 10.742188 11.144531 10.726562 11.160156 Z M 11.328125 11.460938 C 11.328125 11.496094 11.210938 11.515625 11.191406 11.484375 C 11.175781 11.460938 11.203125 11.445312 11.246094 11.445312 C 11.292969 11.445312 11.328125 11.453125 11.328125 11.460938 Z M 11.09375 12.792969 C 11.136719 12.84375 11.132812 12.847656 11.078125 12.828125 C 11.042969 12.816406 11.015625 12.789062 11.015625 12.769531 C 11.015625 12.71875 11.039062 12.726562 11.09375 12.792969 Z M 10.53125 12.835938 C 10.605469 12.871094 10.664062 12.914062 10.664062 12.933594 C 10.664062 12.957031 10.699219 12.953125 10.742188 12.929688 C 10.796875 12.898438 10.820312 12.898438 10.820312 12.929688 C 10.820312 12.953125 10.839844 12.960938 10.859375 12.949219 C 10.882812 12.9375 10.898438 12.941406 10.898438 12.964844 C 10.898438 12.984375 10.875 13.007812 10.851562 13.019531 C 10.824219 13.027344 10.816406 13.050781 10.832031 13.070312 C 10.847656 13.085938 10.902344 13.078125 10.949219 13.050781 C 11.03125 13 11.03125 13.003906 10.96875 13.066406 C 10.894531 13.148438 10.761719 13.117188 10.796875 13.027344 C 10.824219 12.949219 10.726562 12.949219 10.664062 13.027344 C 10.605469 13.097656 10.425781 13.105469 10.363281 13.042969 C 10.285156 12.964844 10.347656 12.894531 10.476562 12.914062 C 10.632812 12.933594 10.574219 12.871094 10.390625 12.820312 C 10.316406 12.796875 10.285156 12.777344 10.324219 12.777344 C 10.367188 12.773438 10.457031 12.800781 10.53125 12.835938 Z M 10.976562 12.808594 C 10.976562 12.828125 10.949219 12.855469 10.914062 12.867188 C 10.859375 12.886719 10.855469 12.882812 10.898438 12.832031 C 10.953125 12.765625 10.976562 12.757812 10.976562 12.808594 Z M 10.324219 13.398438 C 10.3125 13.441406 10.296875 13.476562 10.289062 13.476562 C 10.28125 13.476562 10.273438 13.441406 10.273438 13.398438 C 10.273438 13.355469 10.289062 13.320312 10.308594 13.320312 C 10.328125 13.320312 10.335938 13.355469 10.324219 13.398438 Z M 10.878906 13.359375 C 10.890625 13.378906 10.882812 13.398438 10.863281 13.398438 C 10.839844 13.398438 10.820312 13.378906 10.820312 13.359375 C 10.820312 13.335938 10.828125 13.320312 10.835938 13.320312 C 10.847656 13.320312 10.867188 13.335938 10.878906 13.359375 Z M 10.867188 13.542969 C 10.855469 13.605469 10.839844 13.628906 10.828125 13.601562 C 10.8125 13.550781 10.84375 13.4375 10.871094 13.4375 C 10.878906 13.4375 10.878906 13.484375 10.867188 13.542969 Z M 9.429688 13.796875 C 9.410156 13.828125 9.425781 13.832031 9.46875 13.816406 C 9.507812 13.800781 9.527344 13.804688 9.511719 13.828125 C 9.5 13.851562 9.511719 13.867188 9.539062 13.867188 C 9.566406 13.867188 9.527344 13.910156 9.453125 13.960938 C 9.378906 14.011719 9.300781 14.046875 9.28125 14.035156 C 9.265625 14.023438 9.269531 14 9.296875 13.984375 C 9.328125 13.964844 9.324219 13.949219 9.28125 13.933594 C 9.1875 13.898438 9.207031 13.832031 9.304688 13.859375 C 9.367188 13.875 9.382812 13.867188 9.363281 13.820312 C 9.339844 13.75 9.367188 13.703125 9.421875 13.734375 C 9.4375 13.746094 9.441406 13.773438 9.429688 13.796875 Z M 10.585938 13.75 C 10.585938 13.769531 10.578125 13.789062 10.570312 13.789062 C 10.558594 13.789062 10.539062 13.769531 10.527344 13.75 C 10.515625 13.726562 10.523438 13.710938 10.542969 13.710938 C 10.566406 13.710938 10.585938 13.726562 10.585938 13.75 Z M 10.195312 14.351562 C 10.195312 14.363281 10.179688 14.382812 10.15625 14.394531 C 10.136719 14.40625 10.117188 14.398438 10.117188 14.378906 C 10.117188 14.355469 10.136719 14.335938 10.15625 14.335938 C 10.179688 14.335938 10.195312 14.34375 10.195312 14.351562 Z M 10.144531 14.65625 C 10.136719 14.707031 10.128906 14.675781 10.128906 14.589844 C 10.125 14.503906 10.132812 14.464844 10.144531 14.5 C 10.152344 14.539062 10.152344 14.609375 10.144531 14.65625 Z M 10.300781 14.710938 C 10.304688 14.800781 10.300781 14.804688 10.285156 14.730469 C 10.269531 14.65625 10.257812 14.648438 10.230469 14.691406 C 10.207031 14.734375 10.195312 14.722656 10.195312 14.65625 C 10.195312 14.519531 10.292969 14.574219 10.300781 14.710938 Z M 29.859375 14.984375 C 29.9375 15.0625 29.9375 15.097656 29.859375 15.175781 C 29.769531 15.261719 29.574219 15.191406 29.570312 15.070312 C 29.570312 15.023438 29.691406 14.921875 29.746094 14.921875 C 29.773438 14.921875 29.828125 14.949219 29.859375 14.984375 Z M 33.484375 15.703125 C 33.496094 16.457031 33.492188 16.445312 33.800781 16.445312 C 33.972656 16.445312 33.984375 16.453125 33.984375 16.546875 C 33.984375 16.648438 33.984375 16.648438 33.714844 16.632812 C 33.289062 16.609375 33.285156 16.601562 33.273438 15.863281 L 33.261719 15.253906 L 33.078125 15.242188 C 32.910156 15.230469 32.890625 15.222656 32.890625 15.132812 C 32.890625 15.042969 32.898438 15.039062 33.179688 15.039062 L 33.472656 15.039062 Z M 24.734375 15.28125 L 24.746094 15.449219 L 24.960938 15.449219 C 25.152344 15.449219 25.175781 15.457031 25.1875 15.535156 C 25.199219 15.621094 25.1875 15.625 24.964844 15.625 L 24.726562 15.625 L 24.726562 15.988281 C 24.726562 16.21875 24.742188 16.367188 24.773438 16.398438 C 24.800781 16.425781 24.894531 16.445312 24.988281 16.445312 C 25.144531 16.445312 25.15625 16.453125 25.15625 16.546875 C 25.15625 16.648438 25.152344 16.648438 24.921875 16.632812 C 24.5625 16.605469 24.53125 16.5625 24.53125 16.046875 L 24.53125 15.625 L 24.375 15.625 C 24.246094 15.625 24.21875 15.613281 24.21875 15.550781 C 24.21875 15.488281 24.25 15.472656 24.367188 15.460938 C 24.507812 15.449219 24.511719 15.445312 24.523438 15.28125 C 24.535156 15.136719 24.546875 15.117188 24.628906 15.117188 C 24.710938 15.117188 24.722656 15.136719 24.734375 15.28125 Z M 28.476562 15.273438 L 28.476562 15.425781 L 28.703125 15.4375 C 28.898438 15.449219 28.925781 15.460938 28.9375 15.535156 C 28.949219 15.613281 28.933594 15.621094 28.722656 15.632812 L 28.496094 15.644531 L 28.484375 15.988281 C 28.472656 16.398438 28.496094 16.445312 28.734375 16.445312 C 28.890625 16.445312 28.90625 16.453125 28.90625 16.542969 C 28.90625 16.636719 28.894531 16.640625 28.695312 16.640625 C 28.542969 16.640625 28.460938 16.617188 28.386719 16.5625 C 28.289062 16.484375 28.285156 16.460938 28.273438 16.0625 L 28.261719 15.644531 L 28.117188 15.632812 C 28.003906 15.625 27.96875 15.601562 27.96875 15.546875 C 27.96875 15.492188 28.003906 15.46875 28.117188 15.460938 C 28.257812 15.449219 28.261719 15.445312 28.273438 15.28125 C 28.285156 15.136719 28.296875 15.117188 28.382812 15.117188 C 28.464844 15.117188 28.476562 15.132812 28.476562 15.273438 Z M 21.226562 15.484375 C 21.382812 15.550781 21.445312 15.703125 21.316406 15.703125 C 21.269531 15.703125 21.195312 15.675781 21.15625 15.644531 C 20.972656 15.503906 20.644531 15.636719 20.738281 15.8125 C 20.785156 15.898438 20.828125 15.917969 21.089844 15.957031 C 21.335938 15.996094 21.460938 16.132812 21.433594 16.320312 C 21.417969 16.410156 21.367188 16.5 21.304688 16.558594 C 21.210938 16.636719 21.167969 16.648438 20.945312 16.632812 C 20.722656 16.617188 20.679688 16.601562 20.59375 16.5 L 20.492188 16.386719 L 20.601562 16.375 C 20.660156 16.367188 20.742188 16.390625 20.777344 16.421875 C 20.910156 16.542969 21.25 16.46875 21.25 16.324219 C 21.25 16.210938 21.164062 16.140625 20.988281 16.113281 C 20.664062 16.066406 20.546875 15.972656 20.546875 15.761719 C 20.546875 15.613281 20.589844 15.542969 20.71875 15.484375 C 20.875 15.417969 21.0625 15.417969 21.226562 15.484375 Z M 23.816406 15.523438 C 23.921875 15.617188 23.925781 15.628906 23.941406 16.109375 L 23.953125 16.601562 L 23.855469 16.601562 C 23.738281 16.601562 23.707031 16.488281 23.714844 16.035156 C 23.71875 15.761719 23.710938 15.71875 23.632812 15.65625 C 23.519531 15.566406 23.417969 15.566406 23.320312 15.664062 C 23.242188 15.742188 23.230469 15.835938 23.222656 16.476562 C 23.222656 16.578125 23.207031 16.601562 23.136719 16.601562 C 23.046875 16.601562 23.046875 16.597656 23.046875 16.035156 C 23.046875 15.496094 23.050781 15.46875 23.125 15.46875 C 23.175781 15.46875 23.203125 15.496094 23.203125 15.546875 C 23.203125 15.648438 23.234375 15.644531 23.34375 15.527344 C 23.464844 15.398438 23.667969 15.394531 23.816406 15.523438 Z M 26.222656 15.472656 C 26.367188 15.539062 26.398438 15.640625 26.425781 16.140625 L 26.449219 16.601562 L 26.332031 16.601562 C 26.242188 16.601562 26.21875 16.585938 26.234375 16.542969 C 26.265625 16.460938 26.226562 16.46875 26.132812 16.5625 C 26.023438 16.671875 25.75 16.667969 25.609375 16.558594 C 25.53125 16.496094 25.507812 16.445312 25.507812 16.324219 C 25.507812 16.238281 25.523438 16.132812 25.546875 16.09375 C 25.597656 16 25.789062 15.9375 26.019531 15.9375 C 26.207031 15.9375 26.210938 15.933594 26.210938 15.824219 C 26.210938 15.746094 26.179688 15.6875 26.125 15.648438 C 26.011719 15.566406 25.929688 15.570312 25.816406 15.65625 C 25.695312 15.75 25.546875 15.789062 25.546875 15.726562 C 25.546875 15.652344 25.664062 15.503906 25.757812 15.46875 C 25.875 15.421875 26.113281 15.421875 26.222656 15.472656 Z M 27.5 15.488281 C 27.621094 15.550781 27.695312 15.65625 27.695312 15.757812 C 27.695312 15.851562 27.511719 15.839844 27.480469 15.746094 C 27.449219 15.640625 27.242188 15.574219 27.136719 15.632812 C 27.007812 15.699219 26.992188 15.738281 26.992188 16.042969 C 26.992188 16.332031 27.027344 16.414062 27.183594 16.464844 C 27.289062 16.496094 27.449219 16.425781 27.480469 16.332031 C 27.496094 16.277344 27.539062 16.25 27.601562 16.25 C 27.734375 16.25 27.726562 16.382812 27.582031 16.527344 C 27.480469 16.625 27.4375 16.640625 27.246094 16.640625 C 27.054688 16.640625 27.011719 16.625 26.910156 16.527344 C 26.8125 16.429688 26.796875 16.382812 26.792969 16.183594 C 26.785156 15.679688 26.800781 15.605469 26.964844 15.503906 C 27.113281 15.414062 27.34375 15.40625 27.5 15.488281 Z M 29.832031 15.484375 C 29.847656 15.5 29.863281 15.71875 29.863281 15.96875 L 29.863281 16.425781 L 30.050781 16.4375 C 30.214844 16.449219 30.234375 16.457031 30.234375 16.546875 L 30.234375 16.640625 L 29.296875 16.640625 L 29.296875 16.542969 C 29.296875 16.453125 29.3125 16.445312 29.472656 16.445312 L 29.652344 16.445312 L 29.640625 16.042969 L 29.628906 15.644531 L 29.46875 15.632812 C 29.328125 15.621094 29.308594 15.609375 29.324219 15.535156 C 29.339844 15.453125 29.363281 15.445312 29.570312 15.449219 C 29.699219 15.449219 29.816406 15.464844 29.832031 15.484375 Z M 31.316406 15.5625 C 31.4375 15.707031 31.4375 15.820312 31.308594 15.820312 C 31.253906 15.820312 31.210938 15.804688 31.210938 15.785156 C 31.210938 15.621094 30.867188 15.566406 30.765625 15.710938 C 30.691406 15.8125 30.679688 16.214844 30.746094 16.332031 C 30.835938 16.503906 31.136719 16.496094 31.191406 16.320312 C 31.207031 16.273438 31.253906 16.25 31.332031 16.25 C 31.464844 16.25 31.464844 16.253906 31.386719 16.40625 C 31.300781 16.574219 31.179688 16.640625 30.953125 16.640625 C 30.617188 16.640625 30.46875 16.449219 30.46875 16.011719 C 30.46875 15.597656 30.644531 15.414062 31.011719 15.441406 C 31.183594 15.453125 31.242188 15.476562 31.316406 15.5625 Z M 32.542969 15.542969 C 32.632812 15.632812 32.65625 15.695312 32.65625 15.828125 C 32.660156 15.921875 32.664062 16.132812 32.667969 16.296875 C 32.675781 16.582031 32.671875 16.597656 32.582031 16.613281 C 32.515625 16.625 32.484375 16.609375 32.472656 16.5625 C 32.453125 16.496094 32.449219 16.496094 32.378906 16.566406 C 32.261719 16.683594 31.941406 16.667969 31.816406 16.542969 C 31.6875 16.417969 31.6875 16.214844 31.8125 16.070312 C 31.890625 15.976562 31.9375 15.960938 32.164062 15.945312 C 32.449219 15.925781 32.503906 15.882812 32.429688 15.726562 C 32.371094 15.59375 32.199219 15.5625 32.066406 15.660156 C 32.003906 15.707031 31.910156 15.742188 31.859375 15.742188 C 31.765625 15.742188 31.761719 15.734375 31.804688 15.640625 C 31.867188 15.503906 32.015625 15.433594 32.238281 15.429688 C 32.398438 15.429688 32.445312 15.449219 32.542969 15.542969 Z M 21.949219 15.554688 C 22.15625 16.136719 22.199219 16.25 22.226562 16.25 C 22.246094 16.25 22.316406 16.082031 22.382812 15.875 C 22.503906 15.511719 22.550781 15.449219 22.667969 15.476562 C 22.753906 15.496094 22.195312 17 22.101562 17.015625 C 21.992188 17.03125 21.984375 16.96875 22.058594 16.761719 L 22.125 16.566406 L 21.9375 16.066406 C 21.832031 15.792969 21.738281 15.542969 21.730469 15.515625 C 21.71875 15.484375 21.746094 15.46875 21.8125 15.46875 C 21.882812 15.46875 21.925781 15.496094 21.949219 15.554688 Z M 10.351562 16.191406 C 10.351562 16.300781 10.152344 16.3125 10.085938 16.207031 C 10.058594 16.167969 10.050781 16.132812 10.066406 16.136719 C 10.15625 16.152344 10.1875 16.125 10.164062 16.046875 C 10.144531 15.964844 10.144531 15.964844 10.246094 16.039062 C 10.304688 16.078125 10.351562 16.148438 10.351562 16.191406 Z M 10.550781 16.277344 C 10.601562 16.339844 10.597656 16.34375 10.539062 16.292969 C 10.5 16.265625 10.46875 16.234375 10.46875 16.226562 C 10.46875 16.195312 10.5 16.214844 10.550781 16.277344 Z M 10.375 18.0625 C 10.402344 18.34375 10.398438 18.367188 10.339844 18.316406 C 10.304688 18.285156 10.292969 18.246094 10.316406 18.222656 C 10.378906 18.160156 10.355469 18.113281 10.285156 18.167969 C 10.25 18.199219 10.230469 18.203125 10.246094 18.179688 C 10.292969 18.101562 10.316406 17.882812 10.273438 17.910156 C 10.21875 17.945312 10.222656 17.878906 10.285156 17.816406 C 10.308594 17.785156 10.3125 17.773438 10.292969 17.785156 C 10.265625 17.796875 10.257812 17.746094 10.269531 17.644531 L 10.285156 17.480469 L 10.316406 17.617188 C 10.335938 17.691406 10.359375 17.894531 10.375 18.0625 Z M 23.9375 18.425781 C 23.925781 19.234375 23.925781 19.238281 23.835938 19.25 C 23.785156 19.257812 23.742188 19.238281 23.726562 19.203125 C 23.707031 19.148438 23.695312 19.148438 23.621094 19.199219 C 23.484375 19.292969 23.269531 19.273438 23.152344 19.15625 C 23.027344 19.03125 22.992188 18.875 23.015625 18.515625 C 23.027344 18.28125 23.046875 18.226562 23.136719 18.136719 C 23.265625 18.003906 23.503906 17.988281 23.628906 18.101562 L 23.710938 18.175781 L 23.710938 17.617188 L 23.945312 17.617188 Z M 21.1875 18.0625 C 21.328125 18.121094 21.445312 18.257812 21.445312 18.367188 C 21.445312 18.476562 21.273438 18.457031 21.195312 18.339844 C 21.109375 18.210938 20.964844 18.175781 20.839844 18.257812 C 20.75 18.316406 20.742188 18.34375 20.742188 18.621094 C 20.742188 18.84375 20.757812 18.9375 20.808594 18.992188 C 20.921875 19.117188 21.152344 19.074219 21.214844 18.921875 C 21.261719 18.792969 21.445312 18.789062 21.445312 18.914062 C 21.441406 19.109375 21.234375 19.257812 20.96875 19.257812 C 20.644531 19.257812 20.507812 19.066406 20.507812 18.625 C 20.507812 18.28125 20.59375 18.109375 20.789062 18.050781 C 20.972656 18 21.039062 18 21.1875 18.0625 Z M 22.519531 18.109375 C 22.660156 18.199219 22.707031 18.363281 22.691406 18.710938 C 22.675781 18.988281 22.664062 19.035156 22.570312 19.125 C 22.488281 19.207031 22.417969 19.234375 22.25 19.25 C 22.042969 19.265625 22.027344 19.261719 21.894531 19.128906 C 21.757812 18.992188 21.757812 18.992188 21.757812 18.640625 C 21.757812 18.347656 21.769531 18.277344 21.839844 18.1875 C 21.980469 18.011719 22.308594 17.972656 22.519531 18.109375 Z M 24.941406 18.0625 C 25.113281 18.136719 25.191406 18.261719 25.222656 18.511719 L 25.246094 18.710938 L 24.867188 18.710938 C 24.503906 18.710938 24.492188 18.714844 24.492188 18.800781 C 24.492188 18.953125 24.597656 19.0625 24.746094 19.0625 C 24.816406 19.0625 24.902344 19.035156 24.9375 19.003906 C 25.011719 18.929688 25.195312 18.925781 25.195312 19 C 25.195312 19.03125 25.140625 19.101562 25.074219 19.15625 C 24.980469 19.234375 24.914062 19.257812 24.765625 19.257812 C 24.417969 19.257812 24.234375 19 24.265625 18.550781 C 24.285156 18.277344 24.378906 18.125 24.574219 18.058594 C 24.75 17.996094 24.785156 17.996094 24.941406 18.0625 Z M 10.265625 18.457031 C 10.253906 18.46875 10.230469 18.449219 10.21875 18.410156 C 10.195312 18.355469 10.199219 18.351562 10.238281 18.386719 C 10.265625 18.414062 10.277344 18.445312 10.265625 18.457031 Z M 10.40625 18.472656 C 10.417969 18.441406 10.421875 18.488281 10.410156 18.574219 C 10.382812 18.800781 10.371094 18.84375 10.332031 18.90625 C 10.300781 18.957031 10.308594 18.957031 10.363281 18.910156 C 10.398438 18.882812 10.429688 18.832031 10.429688 18.796875 C 10.429688 18.765625 10.4375 18.746094 10.449219 18.757812 C 10.460938 18.765625 10.453125 18.855469 10.433594 18.957031 C 10.417969 19.054688 10.417969 19.15625 10.433594 19.1875 C 10.457031 19.222656 10.46875 19.210938 10.472656 19.140625 C 10.476562 19.050781 10.480469 19.050781 10.503906 19.160156 C 10.535156 19.296875 10.492188 19.375 10.382812 19.375 C 10.3125 19.375 10.304688 19.351562 10.320312 19.183594 C 10.324219 19.078125 10.320312 19 10.304688 19.011719 C 10.285156 19.019531 10.273438 18.988281 10.273438 18.9375 C 10.273438 18.886719 10.261719 18.777344 10.246094 18.695312 C 10.230469 18.585938 10.234375 18.550781 10.265625 18.570312 C 10.296875 18.589844 10.3125 18.566406 10.3125 18.507812 C 10.3125 18.441406 10.324219 18.433594 10.347656 18.472656 C 10.375 18.515625 10.386719 18.515625 10.40625 18.472656 Z M 10.511719 19.464844 C 10.480469 19.496094 10.46875 19.492188 10.46875 19.449219 C 10.46875 19.371094 10.519531 19.316406 10.539062 19.375 C 10.550781 19.402344 10.535156 19.441406 10.511719 19.464844 Z M 10.429688 19.472656 C 10.429688 19.503906 10.414062 19.53125 10.390625 19.53125 C 10.371094 19.53125 10.351562 19.503906 10.351562 19.472656 C 10.351562 19.441406 10.371094 19.414062 10.390625 19.414062 C 10.414062 19.414062 10.429688 19.441406 10.429688 19.472656 Z M 9.367188 19.503906 C 9.398438 19.542969 9.390625 19.554688 9.324219 19.558594 C 9.277344 19.558594 9.261719 19.554688 9.289062 19.542969 C 9.3125 19.53125 9.328125 19.507812 9.3125 19.488281 C 9.28125 19.433594 9.320312 19.445312 9.367188 19.503906 Z M 10.523438 19.59375 C 10.535156 19.625 10.53125 19.640625 10.507812 19.628906 C 10.484375 19.617188 10.46875 19.589844 10.46875 19.566406 C 10.46875 19.511719 10.496094 19.523438 10.523438 19.59375 Z M 10.964844 19.671875 C 10.953125 19.683594 10.917969 19.6875 10.890625 19.675781 C 10.859375 19.664062 10.871094 19.652344 10.914062 19.652344 C 10.957031 19.648438 10.980469 19.660156 10.964844 19.671875 Z M 10.6875 19.867188 C 10.675781 19.925781 10.65625 19.980469 10.640625 19.996094 C 10.625 20.007812 10.625 19.992188 10.632812 19.960938 C 10.644531 19.929688 10.636719 19.871094 10.617188 19.832031 C 10.59375 19.78125 10.597656 19.765625 10.644531 19.765625 C 10.6875 19.765625 10.699219 19.792969 10.6875 19.867188 Z M 10.527344 19.878906 C 10.539062 19.898438 10.535156 19.925781 10.515625 19.9375 C 10.496094 19.949219 10.480469 19.933594 10.480469 19.902344 C 10.480469 19.835938 10.492188 19.828125 10.527344 19.878906 Z M 10 20 C 9.949219 20.03125 9.949219 20.039062 10 20.039062 C 10.042969 20.039062 10.042969 20.050781 10.007812 20.085938 C 9.9375 20.15625 9.949219 20.214844 10.023438 20.152344 C 10.078125 20.105469 10.082031 20.121094 10.0625 20.289062 C 10.054688 20.394531 10.035156 20.488281 10.023438 20.496094 C 9.988281 20.535156 9.921875 20.316406 9.921875 20.160156 C 9.921875 20.007812 9.945312 19.960938 10.015625 19.960938 C 10.039062 19.960938 10.03125 19.980469 10 20 Z M 10.675781 20.597656 C 10.65625 20.628906 10.644531 20.625 10.632812 20.59375 C 10.625 20.566406 10.597656 20.558594 10.578125 20.570312 C 10.550781 20.585938 10.546875 20.578125 10.5625 20.554688 C 10.578125 20.53125 10.613281 20.519531 10.644531 20.53125 C 10.675781 20.546875 10.691406 20.574219 10.675781 20.597656 Z M 27.613281 20.570312 C 27.796875 20.625 27.816406 20.640625 27.796875 20.714844 C 27.78125 20.761719 27.753906 20.882812 27.730469 20.980469 L 27.691406 21.160156 L 27.484375 21.140625 C 27.296875 21.125 27.269531 21.132812 27.195312 21.230469 C 27.148438 21.289062 27.089844 21.410156 27.070312 21.5 C 26.835938 22.414062 26.746094 22.597656 26.46875 22.734375 L 26.292969 22.820312 L 26.367188 22.921875 C 26.410156 22.980469 26.460938 23.105469 26.480469 23.203125 C 26.523438 23.398438 26.496094 23.5625 26.308594 24.246094 C 26.199219 24.644531 26.199219 24.648438 26.273438 24.730469 C 26.3125 24.777344 26.40625 24.839844 26.476562 24.871094 C 26.542969 24.898438 26.601562 24.933594 26.601562 24.945312 C 26.601562 25.039062 26.460938 25.46875 26.429688 25.46875 C 26.355469 25.46875 26.035156 25.335938 25.886719 25.242188 C 25.714844 25.136719 25.589844 24.898438 25.585938 24.683594 C 25.585938 24.605469 25.65625 24.296875 25.742188 24 C 25.9375 23.328125 25.941406 23.195312 25.777344 23.042969 C 25.710938 22.980469 25.632812 22.929688 25.601562 22.929688 C 25.53125 22.929688 25.53125 22.804688 25.601562 22.578125 C 25.652344 22.402344 25.65625 22.402344 25.855469 22.382812 C 26.164062 22.351562 26.226562 22.265625 26.421875 21.589844 C 26.605469 20.972656 26.722656 20.742188 26.921875 20.640625 C 27.199219 20.496094 27.324219 20.484375 27.613281 20.570312 Z M 9.386719 21.042969 C 9.359375 21.050781 9.3125 21.050781 9.289062 21.042969 C 9.261719 21.03125 9.28125 21.023438 9.335938 21.023438 C 9.390625 21.023438 9.410156 21.03125 9.386719 21.042969 Z M 10.925781 22.328125 C 10.914062 22.339844 10.878906 22.34375 10.851562 22.332031 C 10.820312 22.320312 10.832031 22.308594 10.875 22.308594 C 10.917969 22.304688 10.941406 22.316406 10.925781 22.328125 Z M 10.234375 22.5 C 10.234375 22.519531 10.226562 22.539062 10.21875 22.539062 C 10.207031 22.539062 10.1875 22.519531 10.175781 22.5 C 10.164062 22.476562 10.171875 22.460938 10.191406 22.460938 C 10.214844 22.460938 10.234375 22.476562 10.234375 22.5 Z M 10.570312 22.609375 C 10.503906 22.671875 10.5 22.671875 10.550781 22.589844 C 10.578125 22.542969 10.609375 22.511719 10.621094 22.523438 C 10.632812 22.53125 10.609375 22.570312 10.570312 22.609375 Z M 11.71875 31.792969 C 11.78125 31.914062 11.769531 32.390625 11.695312 32.492188 L 11.636719 32.578125 L 10.300781 32.578125 C 8.582031 32.578125 8.402344 32.617188 8.195312 33.039062 C 8.113281 33.210938 8.105469 33.277344 8.09375 33.988281 C 8.074219 35.109375 8.140625 35.351562 8.511719 35.523438 C 8.683594 35.601562 8.765625 35.605469 10.1875 35.625 C 11.460938 35.640625 11.6875 35.652344 11.71875 35.703125 C 11.785156 35.804688 11.765625 36.339844 11.695312 36.441406 L 11.632812 36.53125 L 10.101562 36.515625 L 8.574219 36.5 L 8.257812 36.394531 C 7.394531 36.109375 7.152344 35.605469 7.152344 34.101562 C 7.152344 33.015625 7.246094 32.613281 7.582031 32.246094 C 7.675781 32.144531 7.855469 32.011719 7.980469 31.949219 C 8.382812 31.746094 8.550781 31.726562 10.183594 31.722656 C 11.621094 31.71875 11.679688 31.722656 11.71875 31.792969 Z M 14.804688 33.476562 C 14.824219 35.296875 14.824219 35.289062 15.007812 35.457031 C 15.167969 35.605469 15.355469 35.625 16.613281 35.625 C 17.367188 35.625 17.847656 35.640625 17.894531 35.664062 C 17.960938 35.699219 17.96875 35.75 17.96875 36.066406 C 17.96875 36.296875 17.953125 36.445312 17.921875 36.476562 C 17.859375 36.539062 15.605469 36.542969 15.171875 36.480469 C 14.328125 36.363281 14 36.015625 13.90625 35.144531 C 13.855469 34.644531 13.855469 31.890625 13.910156 31.792969 C 13.945312 31.722656 13.984375 31.71875 14.367188 31.726562 L 14.785156 31.738281 Z M 22.949219 31.84375 C 23.042969 31.933594 23.1875 32.191406 23.429688 32.714844 C 23.621094 33.121094 24.089844 34.121094 24.472656 34.933594 C 24.859375 35.761719 25.152344 36.433594 25.140625 36.46875 C 25.121094 36.515625 25.039062 36.523438 24.660156 36.515625 L 24.199219 36.503906 L 24.089844 36.289062 C 24.03125 36.171875 23.921875 35.9375 23.847656 35.769531 L 23.714844 35.46875 L 21.015625 35.46875 L 20.800781 35.925781 C 20.679688 36.175781 20.554688 36.414062 20.519531 36.453125 C 20.464844 36.511719 20.390625 36.523438 20.03125 36.523438 C 19.695312 36.523438 19.601562 36.511719 19.585938 36.46875 C 19.574219 36.4375 19.832031 35.84375 20.15625 35.148438 C 20.484375 34.453125 20.925781 33.511719 21.140625 33.054688 C 21.789062 31.671875 21.742188 31.71875 22.394531 31.71875 L 22.8125 31.71875 Z M 27.058594 31.765625 C 27.082031 31.792969 27.226562 32.28125 27.378906 32.851562 C 27.535156 33.421875 27.738281 34.167969 27.835938 34.511719 C 27.933594 34.855469 28.039062 35.230469 28.070312 35.347656 C 28.105469 35.464844 28.144531 35.542969 28.164062 35.523438 C 28.183594 35.503906 28.242188 35.339844 28.292969 35.15625 C 28.347656 34.972656 28.59375 34.171875 28.847656 33.378906 C 29.402344 31.609375 29.332031 31.71875 29.976562 31.71875 C 30.511719 31.71875 30.566406 31.75 30.691406 32.113281 C 30.769531 32.34375 31.289062 33.976562 31.621094 35.046875 C 31.761719 35.496094 31.808594 35.578125 31.851562 35.4375 C 31.863281 35.402344 32.09375 34.570312 32.367188 33.59375 C 32.636719 32.617188 32.878906 31.792969 32.898438 31.765625 C 32.925781 31.734375 33.066406 31.71875 33.347656 31.71875 C 33.679688 31.71875 33.757812 31.730469 33.777344 31.78125 C 33.796875 31.832031 33.445312 33.109375 33.125 34.160156 C 33.085938 34.289062 32.972656 34.675781 32.871094 35.019531 C 32.769531 35.363281 32.652344 35.757812 32.613281 35.898438 C 32.449219 36.445312 32.3125 36.542969 31.722656 36.515625 C 31.371094 36.5 31.351562 36.496094 31.246094 36.375 C 31.140625 36.253906 30.964844 35.75 30.214844 33.382812 C 30.066406 32.910156 29.980469 32.699219 29.953125 32.726562 C 29.933594 32.746094 29.839844 33.007812 29.746094 33.304688 C 29.359375 34.546875 28.855469 36.085938 28.789062 36.242188 C 28.691406 36.460938 28.542969 36.523438 28.125 36.523438 C 27.773438 36.523438 27.574219 36.460938 27.488281 36.320312 C 27.433594 36.238281 27.199219 35.464844 26.65625 33.582031 C 26.539062 33.167969 26.378906 32.632812 26.304688 32.386719 C 26.171875 31.949219 26.148438 31.796875 26.199219 31.746094 C 26.246094 31.695312 27.019531 31.714844 27.058594 31.765625 Z M 27.058594 31.765625 "/>
<path style=" stroke:none;fill-rule:nonzero;fill:rgb(0%,0%,0%);fill-opacity:1;" d="M 19 5.703125 L 18.570312 6.164062 L 18.425781 6.628906 C 18.347656 6.882812 18.167969 7.484375 18.027344 7.96875 C 17.886719 8.453125 17.742188 8.925781 17.710938 9.019531 C 17.683594 9.117188 17.664062 9.199219 17.671875 9.210938 C 17.679688 9.21875 17.816406 9.164062 17.976562 9.089844 C 18.132812 9.015625 18.542969 8.828125 18.886719 8.671875 C 19.230469 8.515625 19.53125 8.382812 19.550781 8.371094 C 19.574219 8.363281 19.546875 8.390625 19.492188 8.441406 L 19.394531 8.527344 L 19.511719 8.5 C 19.667969 8.460938 19.855469 8.347656 20.359375 7.992188 C 20.847656 7.644531 20.878906 7.585938 20.851562 7.089844 C 20.820312 6.609375 20.769531 6.53125 20.058594 5.847656 L 19.433594 5.246094 Z M 19.851562 6.589844 C 20.0625 6.695312 20.148438 7.058594 20.015625 7.308594 C 19.9375 7.464844 19.65625 7.59375 19.480469 7.554688 C 19.210938 7.496094 19.0625 7.3125 19.0625 7.03125 C 19.0625 6.597656 19.445312 6.382812 19.851562 6.589844 Z M 19.851562 6.589844 "/>
<path style=" stroke:none;fill-rule:nonzero;fill:rgb(0%,0%,0%);fill-opacity:1;" d="M 20.15625 5.535156 C 20.210938 5.59375 20.265625 5.648438 20.28125 5.65625 C 20.367188 5.695312 20.996094 6.449219 21.074219 6.605469 C 21.132812 6.71875 21.207031 6.800781 21.277344 6.828125 C 21.507812 6.917969 24.214844 7.65625 24.367188 7.671875 C 24.398438 7.671875 24.453125 7.589844 24.496094 7.488281 C 24.539062 7.382812 24.613281 7.234375 24.667969 7.15625 C 24.722656 7.078125 24.765625 7 24.765625 6.984375 C 24.765625 6.960938 20.414062 5.503906 20.175781 5.449219 L 20.058594 5.421875 Z M 20.15625 5.535156 "/>
<path style=" stroke:none;fill-rule:nonzero;fill:rgb(0%,0%,0%);fill-opacity:1;" d="M 17.144531 7.609375 C 14.988281 9.789062 13.820312 10.984375 13.839844 11 C 13.855469 11.019531 14.125 10.898438 14.976562 10.492188 C 15.273438 10.351562 15.523438 10.234375 15.527344 10.234375 C 15.546875 10.234375 16.902344 9.585938 17.144531 9.464844 L 17.355469 9.355469 L 17.527344 8.769531 C 17.621094 8.445312 17.804688 7.835938 17.933594 7.410156 C 18.066406 6.984375 18.164062 6.628906 18.15625 6.621094 C 18.148438 6.609375 17.691406 7.054688 17.144531 7.609375 Z M 17.144531 7.609375 "/>
<path style=" stroke:none;fill-rule:nonzero;fill:rgb(0%,0%,0%);fill-opacity:1;" d="M 21.113281 7.253906 C 20.996094 7.84375 20.957031 7.921875 20.683594 8.136719 C 20.433594 8.328125 20.433594 8.324219 20.976562 8.394531 C 21.179688 8.421875 21.902344 8.523438 22.578125 8.617188 C 23.253906 8.710938 23.824219 8.789062 23.84375 8.789062 C 23.859375 8.789062 23.738281 8.691406 23.570312 8.570312 C 23.207031 8.3125 23.136719 8.25 23.3125 8.335938 C 23.402344 8.382812 23.457031 8.390625 23.492188 8.363281 C 23.523438 8.335938 23.589844 8.355469 23.710938 8.421875 C 23.808594 8.476562 23.992188 8.582031 24.125 8.65625 L 24.363281 8.789062 L 24.34375 8.390625 C 24.335938 8.167969 24.320312 7.984375 24.316406 7.976562 C 24.308594 7.96875 23.789062 7.835938 23.160156 7.679688 C 22.527344 7.519531 21.824219 7.335938 21.597656 7.269531 C 21.367188 7.203125 21.167969 7.148438 21.15625 7.148438 C 21.144531 7.148438 21.125 7.195312 21.113281 7.253906 Z M 21.113281 7.253906 "/>
<path style=" stroke:none;fill-rule:nonzero;fill:rgb(0%,0%,0%);fill-opacity:1;" d="M 19.121094 8.828125 C 18.84375 8.96875 18.378906 9.195312 18.09375 9.332031 C 17.746094 9.496094 17.558594 9.609375 17.539062 9.664062 C 17.519531 9.710938 17.386719 10.308594 17.246094 10.996094 C 17.105469 11.683594 16.9375 12.472656 16.878906 12.746094 C 16.8125 13.042969 16.785156 13.226562 16.816406 13.195312 C 16.867188 13.140625 17.417969 12.261719 17.839844 11.5625 C 18.359375 10.699219 18.804688 9.976562 19.074219 9.550781 C 19.410156 9.019531 19.664062 8.59375 19.644531 8.582031 C 19.636719 8.578125 19.402344 8.6875 19.121094 8.828125 Z M 19.121094 8.828125 "/>
<path style=" stroke:none;fill-rule:nonzero;fill:rgb(0%,0%,0%);fill-opacity:1;" d="M 16.484375 10.074219 C 16.300781 10.15625 15.890625 10.347656 15.574219 10.503906 C 15.253906 10.65625 14.984375 10.78125 14.976562 10.78125 C 14.902344 10.78125 13.355469 11.574219 13.382812 11.597656 C 13.453125 11.65625 14.699219 12.507812 14.742188 12.523438 C 14.792969 12.542969 14.828125 12.503906 15.628906 11.503906 C 15.9375 11.117188 16.335938 10.625 16.507812 10.410156 C 16.851562 9.980469 16.894531 9.921875 16.847656 9.925781 C 16.832031 9.925781 16.667969 9.992188 16.484375 10.074219 Z M 16.484375 10.074219 "/>
<path style=" stroke:none;fill-rule:nonzero;fill:rgb(0%,0%,0%);fill-opacity:1;" d="M 16.753906 10.554688 C 16.554688 10.796875 16.320312 11.082031 16.230469 11.191406 C 16.070312 11.382812 15.09375 12.597656 15.035156 12.679688 C 15.011719 12.703125 15.09375 12.785156 15.246094 12.890625 C 16.160156 13.53125 16.371094 13.664062 16.386719 13.621094 C 16.40625 13.566406 16.664062 12.429688 16.832031 11.660156 C 16.976562 10.996094 17.140625 10.140625 17.128906 10.125 C 17.125 10.117188 16.957031 10.3125 16.753906 10.554688 Z M 16.753906 10.554688 "/>
<path style=" stroke:none;fill-rule:nonzero;fill:rgb(0%,0%,0%);fill-opacity:1;" d="M 12.980469 12 C 12.992188 12.050781 13.039062 12.292969 13.085938 12.539062 C 13.476562 14.605469 13.441406 14.476562 13.636719 14.539062 C 13.800781 14.585938 13.957031 14.710938 14.066406 14.878906 L 14.128906 14.976562 L 14.554688 14.929688 C 14.789062 14.902344 15.375 14.839844 15.859375 14.785156 C 16.34375 14.730469 16.761719 14.6875 16.789062 14.6875 C 16.902344 14.6875 16.792969 14.597656 16.171875 14.167969 C 15.5 13.707031 14.308594 12.871094 13.671875 12.421875 C 13.46875 12.277344 13.238281 12.101562 13.164062 12.035156 C 13 11.890625 12.953125 11.882812 12.980469 12 Z M 12.980469 12 "/>
<path style=" stroke:none;fill-rule:nonzero;fill:rgb(0%,0%,0%);fill-opacity:1;" d="M 16.636719 14.980469 C 16.625 14.988281 16.066406 15.050781 15.390625 15.117188 C 14.714844 15.1875 14.148438 15.253906 14.136719 15.265625 C 14.121094 15.28125 14.101562 15.339844 14.085938 15.398438 C 14.0625 15.5 14.132812 15.574219 14.828125 16.183594 C 14.90625 16.25 14.921875 16.25 15.03125 16.195312 C 15.175781 16.121094 15.425781 16.113281 15.566406 16.179688 C 15.664062 16.222656 15.6875 16.207031 16.242188 15.625 C 16.558594 15.296875 16.824219 15.011719 16.828125 14.996094 C 16.84375 14.960938 16.667969 14.945312 16.636719 14.980469 Z M 16.636719 14.980469 "/>
<path style=" stroke:none;fill-rule:nonzero;fill:rgb(0%,0%,0%);fill-opacity:1;" d="M 16.480469 15.789062 C 15.921875 16.375 15.875 16.433594 15.90625 16.523438 C 15.945312 16.628906 15.929688 16.929688 15.882812 17.039062 C 15.859375 17.089844 15.988281 17.242188 16.472656 17.71875 L 17.089844 18.335938 L 17.101562 17.550781 C 17.105469 17.117188 17.105469 16.402344 17.101562 15.957031 L 17.089844 15.152344 Z M 16.480469 15.789062 "/>
<path style=" stroke:none;fill-rule:nonzero;fill:rgb(0%,0%,0%);fill-opacity:1;" d="M 13.839844 15.746094 C 13.816406 15.769531 13.753906 15.8125 13.703125 15.835938 L 13.613281 15.882812 L 13.601562 16.800781 L 13.59375 17.722656 L 13.769531 17.789062 L 13.945312 17.859375 L 14.359375 17.476562 C 14.753906 17.113281 14.769531 17.089844 14.742188 16.972656 C 14.714844 16.859375 14.710938 16.675781 14.734375 16.5 C 14.742188 16.441406 14.640625 16.332031 14.328125 16.0625 C 14.101562 15.863281 13.90625 15.703125 13.898438 15.703125 C 13.890625 15.703125 13.863281 15.722656 13.839844 15.746094 Z M 13.839844 15.746094 "/>
<path style=" stroke:none;fill-rule:nonzero;fill:rgb(0%,0%,0%);fill-opacity:1;" d="M 14.746094 17.453125 C 14.636719 17.554688 14.4375 17.734375 14.304688 17.851562 C 14.082031 18.050781 14.066406 18.074219 14.09375 18.183594 C 14.132812 18.320312 14.058594 18.308594 15.527344 18.417969 C 15.980469 18.449219 16.449219 18.488281 16.578125 18.503906 C 16.726562 18.519531 16.800781 18.511719 16.792969 18.488281 C 16.785156 18.464844 16.527344 18.1875 16.222656 17.875 L 15.667969 17.304688 L 15.492188 17.351562 C 15.328125 17.394531 15.21875 17.382812 14.980469 17.285156 C 14.960938 17.273438 14.851562 17.351562 14.746094 17.453125 Z M 14.746094 17.453125 "/>
<path style=" stroke:none;fill-rule:nonzero;fill:rgb(0%,0%,0%);fill-opacity:1;" d="M 14.082031 18.667969 C 14.019531 18.867188 13.734375 19.101562 13.558594 19.101562 C 13.515625 19.101562 13.472656 19.132812 13.460938 19.167969 C 13.414062 19.34375 13.007812 21.230469 13.007812 21.285156 C 13.007812 21.304688 13.53125 20.972656 14.171875 20.550781 C 16.0625 19.296875 16.578125 18.957031 16.671875 18.910156 C 16.71875 18.886719 16.757812 18.851562 16.757812 18.835938 C 16.757812 18.820312 16.242188 18.765625 15.617188 18.714844 C 14.988281 18.667969 14.390625 18.617188 14.292969 18.605469 C 14.132812 18.585938 14.105469 18.59375 14.082031 18.667969 Z M 14.082031 18.667969 "/>
<path style=" stroke:none;fill-rule:nonzero;fill:rgb(0%,0%,0%);fill-opacity:1;" d="M 12.15625 19.339844 C 11.742188 19.597656 11.382812 19.792969 11.359375 19.78125 C 11.332031 19.765625 11.328125 19.773438 11.34375 19.796875 C 11.359375 19.824219 11.332031 19.863281 11.269531 19.890625 C 11.175781 19.933594 11.167969 19.953125 11.1875 20.097656 C 11.199219 20.207031 11.195312 20.230469 11.171875 20.175781 C 11.140625 20.101562 11.136719 20.101562 11.136719 20.183594 C 11.132812 20.230469 11.15625 20.277344 11.183594 20.285156 C 11.21875 20.300781 11.21875 20.308594 11.179688 20.308594 C 11.152344 20.3125 11.121094 20.285156 11.109375 20.253906 C 11.09375 20.222656 11.070312 20.203125 11.050781 20.214844 C 11.003906 20.246094 11.054688 20.351562 11.113281 20.351562 C 11.140625 20.351562 11.175781 20.414062 11.1875 20.488281 C 11.203125 20.5625 11.230469 20.625 11.25 20.625 C 11.269531 20.625 11.273438 20.597656 11.261719 20.558594 C 11.230469 20.484375 11.25 20.492188 11.570312 20.714844 C 11.695312 20.800781 11.785156 20.886719 11.769531 20.910156 C 11.757812 20.929688 11.761719 20.9375 11.785156 20.925781 C 11.804688 20.914062 11.863281 20.929688 11.910156 20.964844 C 11.984375 21.011719 11.988281 21.03125 11.949219 21.0625 C 11.90625 21.089844 11.914062 21.09375 11.964844 21.078125 C 12.011719 21.0625 12.113281 21.113281 12.257812 21.21875 C 12.546875 21.425781 12.566406 21.445312 12.472656 21.421875 C 12.425781 21.410156 12.378906 21.421875 12.363281 21.449219 C 12.34375 21.480469 12.347656 21.488281 12.375 21.46875 C 12.398438 21.453125 12.457031 21.460938 12.5 21.484375 C 12.554688 21.515625 12.578125 21.515625 12.578125 21.484375 C 12.578125 21.460938 12.59375 21.449219 12.617188 21.464844 C 12.675781 21.5 12.757812 21.292969 12.828125 20.917969 C 12.863281 20.722656 12.964844 20.238281 13.054688 19.832031 L 13.214844 19.101562 L 13.105469 18.984375 C 13.042969 18.917969 12.972656 18.867188 12.953125 18.867188 C 12.929688 18.871094 12.570312 19.082031 12.15625 19.339844 Z M 12.15625 19.339844 "/>
<path style=" stroke:none;fill-rule:nonzero;fill:rgb(0%,0%,0%);fill-opacity:1;" d="M 15.710938 20.171875 C 15.382812 20.394531 15.09375 20.59375 15.070312 20.617188 C 15.039062 20.648438 15.089844 20.742188 15.257812 20.964844 C 15.523438 21.316406 16.761719 22.835938 16.972656 23.066406 L 17.113281 23.222656 L 17.089844 23.007812 C 17.078125 22.890625 16.933594 22.195312 16.769531 21.464844 C 16.605469 20.734375 16.453125 20.054688 16.433594 19.949219 C 16.410156 19.847656 16.371094 19.765625 16.351562 19.769531 C 16.328125 19.769531 16.039062 19.953125 15.710938 20.171875 Z M 15.710938 20.171875 "/>
<path style=" stroke:none;fill-rule:nonzero;fill:rgb(0%,0%,0%);fill-opacity:1;" d="M 11.058594 20.101562 C 11.058594 20.144531 11.070312 20.15625 11.082031 20.125 C 11.09375 20.097656 11.089844 20.0625 11.078125 20.050781 C 11.066406 20.035156 11.054688 20.058594 11.058594 20.101562 Z M 11.058594 20.101562 "/>
<path style=" stroke:none;fill-rule:nonzero;fill:rgb(0%,0%,0%);fill-opacity:1;" d="M 16.796875 20.171875 C 16.796875 20.222656 17.089844 21.648438 17.246094 22.34375 C 17.320312 22.675781 17.410156 23.101562 17.445312 23.289062 C 17.480469 23.480469 17.53125 23.65625 17.554688 23.691406 C 17.585938 23.734375 19.179688 24.464844 19.496094 24.578125 C 19.589844 24.613281 19.636719 24.695312 18.246094 22.472656 C 17.980469 22.046875 17.570312 21.382812 17.332031 20.996094 C 16.859375 20.222656 16.796875 20.125 16.796875 20.171875 Z M 16.796875 20.171875 "/>
<path style=" stroke:none;fill-rule:nonzero;fill:rgb(0%,0%,0%);fill-opacity:1;" d="M 14.628906 20.875 C 14.566406 20.925781 14.265625 21.128906 13.964844 21.332031 C 13.660156 21.535156 13.410156 21.714844 13.40625 21.734375 C 13.398438 21.753906 13.558594 21.84375 13.757812 21.933594 C 13.957031 22.023438 14.457031 22.261719 14.863281 22.460938 C 16.035156 23.03125 16.703125 23.347656 16.800781 23.378906 C 16.859375 23.398438 16.765625 23.257812 16.480469 22.910156 C 16.257812 22.636719 15.785156 22.046875 15.4375 21.605469 C 15.085938 21.164062 14.785156 20.796875 14.773438 20.792969 C 14.757812 20.785156 14.695312 20.824219 14.628906 20.875 Z M 14.628906 20.875 "/>
<path style=" stroke:none;fill-rule:nonzero;fill:rgb(0%,0%,0%);fill-opacity:1;" d="M 11.796875 21.945312 C 11.796875 21.964844 11.824219 21.980469 11.855469 21.980469 C 11.886719 21.980469 11.902344 21.964844 11.890625 21.945312 C 11.878906 21.929688 11.855469 21.914062 11.832031 21.914062 C 11.8125 21.914062 11.796875 21.929688 11.796875 21.945312 Z M 11.796875 21.945312 "/>
<path style=" stroke:none;fill-rule:nonzero;fill:rgb(0%,0%,0%);fill-opacity:1;" d="M 12.304688 22.03125 C 12.304688 22.050781 12.324219 22.070312 12.347656 22.070312 C 12.367188 22.070312 12.375 22.050781 12.363281 22.03125 C 12.351562 22.007812 12.332031 21.992188 12.320312 21.992188 C 12.3125 21.992188 12.304688 22.007812 12.304688 22.03125 Z M 12.304688 22.03125 "/>
<path style=" stroke:none;fill-rule:nonzero;fill:rgb(0%,0%,0%);fill-opacity:1;" d="M 11.855469 22.0625 C 11.886719 22.09375 12.070312 22.105469 12.070312 22.074219 C 12.070312 22.058594 12.019531 22.042969 11.953125 22.042969 C 11.890625 22.042969 11.84375 22.050781 11.855469 22.0625 Z M 11.855469 22.0625 "/>
<path style=" stroke:none;fill-rule:nonzero;fill:rgb(0%,0%,0%);fill-opacity:1;" d="M 13.757812 22.261719 C 13.765625 22.28125 14.359375 22.894531 15.078125 23.621094 C 15.796875 24.347656 16.773438 25.339844 17.242188 25.820312 C 17.710938 26.304688 18.085938 26.664062 18.078125 26.621094 C 18.066406 26.578125 17.976562 26.269531 17.878906 25.9375 C 17.78125 25.605469 17.621094 25.023438 17.519531 24.648438 C 17.417969 24.273438 17.316406 23.945312 17.296875 23.921875 C 17.277344 23.894531 17.074219 23.792969 16.84375 23.691406 C 16.613281 23.585938 16.011719 23.300781 15.507812 23.054688 C 14.375 22.503906 13.738281 22.214844 13.757812 22.261719 Z M 13.757812 22.261719 "/>
<path style=" stroke:none;fill-rule:nonzero;fill:rgb(0%,0%,0%);fill-opacity:1;" d="M 17.671875 24.167969 C 17.804688 24.738281 18.390625 26.753906 18.480469 26.953125 C 18.570312 27.152344 18.683594 27.292969 18.996094 27.605469 C 19.214844 27.828125 19.402344 28.007812 19.414062 28.007812 C 19.453125 28.007812 20.667969 26.773438 20.746094 26.65625 C 20.832031 26.523438 20.847656 26.140625 20.777344 25.820312 C 20.699219 25.449219 20.464844 25.300781 18.910156 24.625 C 18.339844 24.375 17.824219 24.148438 17.761719 24.113281 L 17.644531 24.054688 Z M 19.8125 25.765625 C 19.992188 25.859375 20.050781 25.988281 20.03125 26.234375 C 20.007812 26.496094 19.867188 26.667969 19.636719 26.707031 C 19.234375 26.769531 18.898438 26.332031 19.078125 25.980469 C 19.152344 25.84375 19.222656 25.785156 19.402344 25.71875 C 19.554688 25.667969 19.632812 25.675781 19.8125 25.765625 Z M 19.8125 25.765625 "/>
<path style=" stroke:none;fill-rule:nonzero;fill:rgb(0%,0%,0%);fill-opacity:1;" d="M 22.273438 24.761719 C 21.265625 24.890625 20.546875 24.996094 20.550781 25.019531 C 20.554688 25.039062 20.625 25.117188 20.710938 25.191406 C 20.910156 25.359375 21.046875 25.636719 21.089844 25.960938 C 21.113281 26.101562 21.136719 26.226562 21.144531 26.234375 C 21.152344 26.242188 21.238281 26.21875 21.332031 26.175781 C 21.425781 26.132812 21.6875 26.054688 21.914062 25.996094 C 22.140625 25.941406 22.71875 25.789062 23.203125 25.664062 C 23.6875 25.539062 24.125 25.425781 24.179688 25.414062 C 24.273438 25.394531 24.277344 25.378906 24.277344 25.128906 C 24.277344 24.984375 24.289062 24.789062 24.308594 24.695312 L 24.335938 24.53125 L 24.171875 24.535156 C 24.078125 24.539062 23.226562 24.640625 22.273438 24.761719 Z M 22.273438 24.761719 "/>
<path style=" stroke:none;fill-rule:nonzero;fill:rgb(0%,0%,0%);fill-opacity:1;" d="M 24.140625 25.722656 C 24.042969 25.75 23.449219 25.90625 22.816406 26.070312 C 22.183594 26.234375 21.5625 26.414062 21.4375 26.472656 C 21.257812 26.550781 21.140625 26.652344 20.855469 26.96875 C 20.65625 27.183594 20.382812 27.472656 20.242188 27.605469 C 20.105469 27.742188 20.011719 27.851562 20.035156 27.851562 C 20.058594 27.851562 20.5625 27.691406 21.160156 27.496094 C 22.976562 26.902344 24.628906 26.359375 24.640625 26.347656 C 24.652344 26.335938 24.335938 25.660156 24.324219 25.667969 C 24.320312 25.667969 24.238281 25.695312 24.140625 25.722656 Z M 24.140625 25.722656 "/>
<path style=" stroke:none;fill-rule:nonzero;fill:rgb(0%,0%,0%);fill-opacity:1;" d="M 9.394531 13.90625 C 9.382812 13.925781 9.386719 13.945312 9.410156 13.945312 C 9.429688 13.945312 9.460938 13.925781 9.472656 13.90625 C 9.484375 13.882812 9.480469 13.867188 9.457031 13.867188 C 9.4375 13.867188 9.40625 13.882812 9.394531 13.90625 Z M 9.394531 13.90625 "/>
<path style=" stroke:none;fill-rule:nonzero;fill:rgb(0%,0%,0%);fill-opacity:1;" d="M 20.585938 15.789062 C 20.585938 15.824219 20.605469 15.867188 20.625 15.878906 C 20.675781 15.910156 20.675781 15.859375 20.625 15.78125 C 20.59375 15.730469 20.585938 15.730469 20.585938 15.789062 Z M 20.585938 15.789062 "/>
<path style=" stroke:none;fill-rule:nonzero;fill:rgb(0%,0%,0%);fill-opacity:1;" d="M 25.898438 16.082031 C 25.757812 16.109375 25.703125 16.167969 25.703125 16.292969 C 25.703125 16.476562 25.945312 16.550781 26.125 16.421875 C 26.195312 16.375 26.210938 16.328125 26.203125 16.21875 C 26.191406 16.09375 26.175781 16.074219 26.09375 16.070312 C 26.039062 16.066406 25.953125 16.070312 25.898438 16.082031 Z M 25.898438 16.082031 "/>
<path style=" stroke:none;fill-rule:nonzero;fill:rgb(0%,0%,0%);fill-opacity:1;" d="M 32 16.140625 C 31.914062 16.226562 31.941406 16.402344 32.046875 16.449219 C 32.238281 16.539062 32.460938 16.40625 32.460938 16.207031 C 32.460938 16.097656 32.457031 16.09375 32.253906 16.09375 C 32.140625 16.09375 32.027344 16.113281 32 16.140625 Z M 32 16.140625 "/>
<path style=" stroke:none;fill-rule:nonzero;fill:rgb(0%,0%,0%);fill-opacity:1;" d="M 10.195312 16.171875 L 10.097656 16.203125 L 10.207031 16.207031 C 10.265625 16.210938 10.3125 16.191406 10.3125 16.171875 C 10.3125 16.148438 10.308594 16.132812 10.304688 16.136719 C 10.296875 16.140625 10.25 16.15625 10.195312 16.171875 Z M 10.195312 16.171875 "/>
<path style=" stroke:none;fill-rule:nonzero;fill:rgb(0%,0%,0%);fill-opacity:1;" d="M 23.304688 18.289062 C 23.210938 18.421875 23.21875 18.910156 23.3125 18.996094 C 23.40625 19.082031 23.566406 19.078125 23.644531 18.992188 C 23.742188 18.882812 23.738281 18.355469 23.640625 18.269531 C 23.539062 18.175781 23.375 18.1875 23.304688 18.289062 Z M 23.304688 18.289062 "/>
<path style=" stroke:none;fill-rule:nonzero;fill:rgb(0%,0%,0%);fill-opacity:1;" d="M 22.074219 18.269531 C 22 18.332031 21.988281 18.378906 21.988281 18.625 C 21.988281 18.953125 22.046875 19.0625 22.230469 19.0625 C 22.414062 19.0625 22.460938 18.976562 22.460938 18.632812 C 22.460938 18.359375 22.453125 18.316406 22.375 18.265625 C 22.261719 18.183594 22.175781 18.1875 22.074219 18.269531 Z M 22.074219 18.269531 "/>
<path style=" stroke:none;fill-rule:nonzero;fill:rgb(0%,0%,0%);fill-opacity:1;" d="M 24.566406 18.285156 C 24.523438 18.328125 24.492188 18.402344 24.5 18.449219 C 24.511719 18.527344 24.539062 18.535156 24.757812 18.546875 L 25 18.558594 L 25 18.445312 C 25 18.222656 24.730469 18.121094 24.566406 18.285156 Z M 24.566406 18.285156 "/>
<path style=" stroke:none;fill-rule:nonzero;fill:rgb(0%,0%,0%);fill-opacity:1;" d="M 10.355469 18.617188 C 10.355469 18.660156 10.367188 18.671875 10.378906 18.640625 C 10.390625 18.613281 10.386719 18.578125 10.375 18.566406 C 10.363281 18.550781 10.351562 18.574219 10.355469 18.617188 Z M 10.355469 18.617188 "/>
<path style=" stroke:none;fill-rule:nonzero;fill:rgb(0%,0%,0%);fill-opacity:1;" d="M 21.953125 33.367188 C 21.753906 33.804688 21.539062 34.265625 21.476562 34.390625 C 21.417969 34.519531 21.367188 34.644531 21.367188 34.675781 C 21.367188 34.714844 21.5625 34.726562 22.363281 34.726562 C 22.933594 34.726562 23.359375 34.710938 23.359375 34.691406 C 23.359375 34.671875 23.304688 34.535156 23.238281 34.386719 C 23.171875 34.242188 23.003906 33.867188 22.863281 33.558594 C 22.507812 32.753906 22.414062 32.578125 22.363281 32.578125 C 22.335938 32.578125 22.152344 32.933594 21.953125 33.367188 Z M 21.953125 33.367188 "/>
</g>
</svg>
